<svg width="21" height="20" viewBox="0 0 21 20" fill="none" xmlns="http://www.w3.org/2000/svg">
<path d="M19.8681 0.00702322C19.8086 -0.00236736 19.748 0.00559294 19.6887 0.016707C19.6297 0.0277676 19.5719 0.044249 19.5159 0.0659416L14.3543 2.06681C13.9105 2.23883 13.4199 2.24696 12.9707 2.08973L7.64833 0.226902C7.22818 0.0798493 6.77098 0.0771663 6.34913 0.219278L0.733374 2.11111C0.500041 2.18889 0.333374 2.38889 0.333374 2.64444V19.4444C0.333374 19.7247 0.531787 19.9509 0.798607 19.993C0.858181 20.0024 0.918759 19.9944 0.978036 19.9833C1.03702 19.9722 1.09487 19.9558 1.15083 19.9341L6.31248 17.9332C6.75625 17.7612 7.24683 17.753 7.69605 17.9103L13.0184 19.7731C13.4386 19.9202 13.8958 19.9228 14.3176 19.7807L19.9334 17.8889C20.1667 17.8111 20.3334 17.6111 20.3334 17.3556V0.555556C20.3334 0.275263 20.135 0.0490832 19.8681 0.00702322ZM8.11115 5.5634C8.11115 4.18571 9.4715 3.22057 10.7719 3.67569L11.2163 3.83124C12.0185 4.11201 12.5556 4.86907 12.5556 5.71896V14.4366C12.5556 15.8143 11.1952 16.7794 9.8949 16.3243L9.45045 16.1688C8.64828 15.888 8.11115 15.1309 8.11115 14.281V5.5634ZM2.5556 5.04192C2.5556 4.32637 3.01234 3.69068 3.69048 3.46237C4.77061 3.09872 5.88893 3.90222 5.88893 5.04192V14.5797C5.88893 15.2683 5.46553 15.8859 4.82334 16.1343C3.73124 16.5565 2.5556 15.7506 2.5556 14.5797V5.04192ZM18.1112 14.9581C18.1112 15.6736 17.6544 16.3093 16.9763 16.5376C15.8961 16.9013 14.7778 16.0978 14.7778 14.9581V5.43137C14.7778 4.74283 15.2012 4.12518 15.8434 3.87686C16.9355 3.45458 18.1112 4.26047 18.1112 5.43137V14.9581Z" fill="#DCDCDC"/>
</svg>
