<svg width="20" height="20" viewBox="0 0 20 20" fill="none" xmlns="http://www.w3.org/2000/svg">
<path id="Vector" d="M18.0405 13.6386L15.2126 13.3158C14.5334 13.2378 13.8654 13.4716 13.3867 13.9504L11.3381 15.999C8.18727 14.3957 5.60428 11.8239 4.00105 8.66193L6.06076 6.60221C6.5395 6.12347 6.77331 5.45545 6.69537 4.77631L6.3725 1.97064C6.2389 0.846152 5.29254 0 4.15692 0H2.23081C0.972712 0 -0.0738452 1.04656 0.0040899 2.30465C0.59417 11.8127 8.19841 19.4058 17.6954 19.9959C18.9534 20.0738 20 19.0273 20 17.7692V15.8431C20.0111 14.7186 19.165 13.7722 18.0405 13.6386Z" fill="#DCDCDC"/>
</svg>
