<svg width="60" height="60" viewBox="0 0 60 60" fill="none" xmlns="http://www.w3.org/2000/svg">
<path d="M18.3732 0C19.6565 1.35815 20.502 2.99593 20.9875 4.76466C21.7761 7.63773 21.7257 10.8567 21.4605 14.1396C20.9296 20.7057 19.6068 27.6164 21.1503 31.905C22.5992 35.9304 24.9224 38.3213 27.4998 39.4967C28.6085 40.0026 29.7757 40.2825 30.9563 40.3548C33.7782 32.1199 33.1762 21.6105 28.533 14.5073C34.6806 20.6103 37.5843 29.8258 35.7084 39.4848L34.5921 39.9315C34.9406 39.8279 35.284 39.7079 35.6211 39.5717C40.9335 37.4372 45.2807 31.1889 43.4721 22.028C42.6411 17.8191 39.7893 11.8849 35.0171 7.2875C30.8885 3.31048 25.3763 0.301643 18.3731 0.000252917L18.3732 0ZM54.4776 23.2221C54.3708 24.753 53.8879 26.199 53.135 27.5122C51.8187 29.8075 49.7723 31.7834 47.5565 33.6606C43.1248 37.4147 38.0135 40.8924 36.3281 44.4431C34.7318 47.8066 34.69 50.6748 35.5416 52.9563C35.9054 53.9327 36.4498 54.8325 37.1468 55.6093C43.9754 52.22 50.081 45.3719 51.6169 38.1446C51.6266 45.6915 47.7225 53.1619 40.6033 57.9976C45.1552 59.838 51.5734 58.6346 56.0791 51.9559C58.1665 48.8616 60.0915 43.4406 59.9966 37.6741C59.916 32.779 58.4374 27.6493 54.4777 23.2224L54.4776 23.2221ZM0.457902 32.5181C-0.747795 38.3229 0.547919 43.5047 2.93719 47.7844C5.75162 52.8253 10.1439 56.5624 13.5059 58.2031C20.762 61.7444 26.9213 59.5909 29.9392 55.732C21.3456 55.0867 14.2126 50.5604 10.4309 44.0202C15.392 49.5151 24.1188 52.4078 31.7352 51.944C31.9494 50.9249 31.9697 49.8748 31.7949 48.8481C31.3863 46.4485 29.9043 43.9835 26.8323 41.8653C23.5895 39.6296 17.418 39.1627 11.6943 38.1169C8.83255 37.5944 6.06859 36.9035 3.77582 35.5707C2.46333 34.8077 1.32018 33.7917 0.458156 32.5182L0.457902 32.5181Z" fill="#01662D"/>
</svg>
