<svg width="26" height="20" viewBox="0 0 26 20" fill="none" xmlns="http://www.w3.org/2000/svg">
<path d="M22.8334 0H2.83337C1.45837 0 0.345874 1.125 0.345874 2.5L0.333374 17.5C0.333374 18.875 1.45837 20 2.83337 20H22.8334C24.2084 20 25.3334 18.875 25.3334 17.5V2.5C25.3334 1.125 24.2084 0 22.8334 0ZM22.8334 4.4125C22.8334 4.77798 22.6451 5.11767 22.3352 5.31138L13.8934 10.5875C13.2448 10.9928 12.4219 10.9928 11.7734 10.5875L3.33157 5.31138C3.02165 5.11767 2.83337 4.77798 2.83337 4.4125C2.83337 3.57994 3.74916 3.07237 4.45517 3.51362L11.7734 8.0875C12.4219 8.49284 13.2448 8.49284 13.8934 8.0875L21.2116 3.51362C21.9176 3.07237 22.8334 3.57994 22.8334 4.4125Z" fill="#DCDCDC"/>
</svg>
