<svg width="30" height="20" viewBox="0 0 30 20" fill="none" xmlns="http://www.w3.org/2000/svg">
<path d="M14.6667 2.66667C19.3883 2.66667 23.6327 5.1461 25.9642 9.13696C26.2758 9.67038 26.2758 10.3296 25.9643 10.8631C23.6343 14.8539 19.4008 17.3333 14.6667 17.3333C9.93257 17.3333 5.69902 14.8539 3.36904 10.8631C3.05756 10.3296 3.05754 9.67038 3.36916 9.13695C5.7006 5.1461 9.945 2.66667 14.6667 2.66667ZM14.6667 0C8.27908 0 2.78504 3.80676 0.30731 9.27406C0.0982444 9.73538 0.0982445 10.2646 0.30731 10.7259C2.78504 16.1932 8.27908 20 14.6667 20C21.0543 20 26.5483 16.1932 29.026 10.7259C29.2351 10.2646 29.2351 9.73538 29.026 9.27406C26.5483 3.80676 21.0543 0 14.6667 0ZM14.6667 6.66667C16.5067 6.66667 18 8.16 18 10C18 11.84 16.5067 13.3333 14.6667 13.3333C12.8267 13.3333 11.3333 11.84 11.3333 10C11.3333 8.16 12.8267 6.66667 14.6667 6.66667ZM14.6667 4C11.36 4 8.66667 6.69333 8.66667 10C8.66667 13.3067 11.36 16 14.6667 16C17.9733 16 20.6667 13.3067 20.6667 10C20.6667 6.69333 17.9733 4 14.6667 4Z" fill="#DCDCDC"/>
</svg>
